<svg xmlns="http://www.w3.org/2000/svg" xmlns:xlink="http://www.w3.org/1999/xlink" width="500" zoomAndPan="magnify" viewBox="0 0 375 374.999991" height="500" preserveAspectRatio="xMidYMid meet" version="1.2"><defs><clipPath id="8b0e61d2c0"><path d="M 46 48 L 282 48 L 282 313 L 46 313 Z M 46 48 "/></clipPath><clipPath id="c2fdc99983"><path d="M 130.007812 31.347656 L 347.152344 116.511719 L 260.621094 337.148438 L 43.472656 251.988281 Z M 130.007812 31.347656 "/></clipPath><clipPath id="890c631b0d"><path d="M 130.007812 31.347656 L 347.152344 116.511719 L 260.621094 337.148438 L 43.472656 251.988281 Z M 130.007812 31.347656 "/></clipPath><clipPath id="67510bf12e"><path d="M 130.007812 31.347656 L 347.152344 116.511719 L 260.621094 337.148438 L 43.472656 251.988281 Z M 130.007812 31.347656 "/></clipPath><clipPath id="c486968c68"><path d="M 66 68 L 262 68 L 262 293 L 66 293 Z M 66 68 "/></clipPath><clipPath id="a73f8fd266"><path d="M 130.007812 31.347656 L 347.152344 116.511719 L 260.621094 337.148438 L 43.472656 251.988281 Z M 130.007812 31.347656 "/></clipPath><clipPath id="8e8a1714b4"><path d="M 130.007812 31.347656 L 347.152344 116.511719 L 260.621094 337.148438 L 43.472656 251.988281 Z M 130.007812 31.347656 "/></clipPath><clipPath id="1929be94ba"><path d="M 130.007812 31.347656 L 347.152344 116.511719 L 260.621094 337.148438 L 43.472656 251.988281 Z M 130.007812 31.347656 "/></clipPath><clipPath id="dd2a42959b"><path d="M 161 57 L 235 57 L 235 121 L 161 121 Z M 161 57 "/></clipPath><clipPath id="b3de0cc058"><path d="M 130.007812 31.347656 L 347.152344 116.511719 L 260.621094 337.148438 L 43.472656 251.988281 Z M 130.007812 31.347656 "/></clipPath><clipPath id="b264646809"><path d="M 130.007812 31.347656 L 347.152344 116.511719 L 260.621094 337.148438 L 43.472656 251.988281 Z M 130.007812 31.347656 "/></clipPath><clipPath id="67b500d427"><path d="M 130.007812 31.347656 L 347.152344 116.511719 L 260.621094 337.148438 L 43.472656 251.988281 Z M 130.007812 31.347656 "/></clipPath><clipPath id="c7306ef40f"><path d="M 103 191 L 199 191 L 199 234 L 103 234 Z M 103 191 "/></clipPath><clipPath id="2a29d5b652"><path d="M 130.007812 31.347656 L 347.152344 116.511719 L 260.621094 337.148438 L 43.472656 251.988281 Z M 130.007812 31.347656 "/></clipPath><clipPath id="d90d0f32a5"><path d="M 130.007812 31.347656 L 347.152344 116.511719 L 260.621094 337.148438 L 43.472656 251.988281 Z M 130.007812 31.347656 "/></clipPath><clipPath id="ca00efca9c"><path d="M 130.007812 31.347656 L 347.152344 116.511719 L 260.621094 337.148438 L 43.472656 251.988281 Z M 130.007812 31.347656 "/></clipPath><clipPath id="5871133a8e"><path d="M 112 170 L 193 170 L 193 207 L 112 207 Z M 112 170 "/></clipPath><clipPath id="762e92ba47"><path d="M 130.007812 31.347656 L 347.152344 116.511719 L 260.621094 337.148438 L 43.472656 251.988281 Z M 130.007812 31.347656 "/></clipPath><clipPath id="a52bf59db6"><path d="M 130.007812 31.347656 L 347.152344 116.511719 L 260.621094 337.148438 L 43.472656 251.988281 Z M 130.007812 31.347656 "/></clipPath><clipPath id="b0c85a7c5b"><path d="M 130.007812 31.347656 L 347.152344 116.511719 L 260.621094 337.148438 L 43.472656 251.988281 Z M 130.007812 31.347656 "/></clipPath><clipPath id="19963c765d"><path d="M 95 213 L 191 213 L 191 256 L 95 256 Z M 95 213 "/></clipPath><clipPath id="40777873e9"><path d="M 130.007812 31.347656 L 347.152344 116.511719 L 260.621094 337.148438 L 43.472656 251.988281 Z M 130.007812 31.347656 "/></clipPath><clipPath id="f228fe6e16"><path d="M 130.007812 31.347656 L 347.152344 116.511719 L 260.621094 337.148438 L 43.472656 251.988281 Z M 130.007812 31.347656 "/></clipPath><clipPath id="6513d1e5f3"><path d="M 130.007812 31.347656 L 347.152344 116.511719 L 260.621094 337.148438 L 43.472656 251.988281 Z M 130.007812 31.347656 "/></clipPath><clipPath id="e165abca89"><path d="M 228 109 L 338 109 L 338 196 L 228 196 Z M 228 109 "/></clipPath><clipPath id="c9c7c641e6"><path d="M 130.007812 31.347656 L 347.152344 116.511719 L 260.621094 337.148438 L 43.472656 251.988281 Z M 130.007812 31.347656 "/></clipPath><clipPath id="aebcc75324"><path d="M 130.007812 31.347656 L 347.152344 116.511719 L 260.621094 337.148438 L 43.472656 251.988281 Z M 130.007812 31.347656 "/></clipPath><clipPath id="9593ba2165"><path d="M 130.007812 31.347656 L 347.152344 116.511719 L 260.621094 337.148438 L 43.472656 251.988281 Z M 130.007812 31.347656 "/></clipPath><clipPath id="799bcee53b"><path d="M 255 139 L 302 139 L 302 171 L 255 171 Z M 255 139 "/></clipPath><clipPath id="1b6865b46d"><path d="M 130.007812 31.347656 L 347.152344 116.511719 L 260.621094 337.148438 L 43.472656 251.988281 Z M 130.007812 31.347656 "/></clipPath><clipPath id="ce5fe252f5"><path d="M 130.007812 31.347656 L 347.152344 116.511719 L 260.621094 337.148438 L 43.472656 251.988281 Z M 130.007812 31.347656 "/></clipPath><clipPath id="15bcbf1d87"><path d="M 130.007812 31.347656 L 347.152344 116.511719 L 260.621094 337.148438 L 43.472656 251.988281 Z M 130.007812 31.347656 "/></clipPath><clipPath id="9b49a30bef"><path d="M 202 161 L 253 161 L 253 204 L 202 204 Z M 202 161 "/></clipPath><clipPath id="021a93317b"><path d="M 130.007812 31.347656 L 347.152344 116.511719 L 260.621094 337.148438 L 43.472656 251.988281 Z M 130.007812 31.347656 "/></clipPath><clipPath id="9bba26f0d8"><path d="M 130.007812 31.347656 L 347.152344 116.511719 L 260.621094 337.148438 L 43.472656 251.988281 Z M 130.007812 31.347656 "/></clipPath><clipPath id="92f2357c7e"><path d="M 130.007812 31.347656 L 347.152344 116.511719 L 260.621094 337.148438 L 43.472656 251.988281 Z M 130.007812 31.347656 "/></clipPath><clipPath id="b51916ee91"><path d="M 298 109 L 338 109 L 338 153 L 298 153 Z M 298 109 "/></clipPath><clipPath id="1b5de095b0"><path d="M 130.007812 31.347656 L 347.152344 116.511719 L 260.621094 337.148438 L 43.472656 251.988281 Z M 130.007812 31.347656 "/></clipPath><clipPath id="ecf900f1f7"><path d="M 130.007812 31.347656 L 347.152344 116.511719 L 260.621094 337.148438 L 43.472656 251.988281 Z M 130.007812 31.347656 "/></clipPath><clipPath id="ff254e54aa"><path d="M 130.007812 31.347656 L 347.152344 116.511719 L 260.621094 337.148438 L 43.472656 251.988281 Z M 130.007812 31.347656 "/></clipPath><clipPath id="ee4b224964"><path d="M 120 148 L 202 148 L 202 185 L 120 185 Z M 120 148 "/></clipPath><clipPath id="43d07a99bd"><path d="M 130.007812 31.347656 L 347.152344 116.511719 L 260.621094 337.148438 L 43.472656 251.988281 Z M 130.007812 31.347656 "/></clipPath><clipPath id="92a946697d"><path d="M 130.007812 31.347656 L 347.152344 116.511719 L 260.621094 337.148438 L 43.472656 251.988281 Z M 130.007812 31.347656 "/></clipPath><clipPath id="5d21f329bd"><path d="M 130.007812 31.347656 L 347.152344 116.511719 L 260.621094 337.148438 L 43.472656 251.988281 Z M 130.007812 31.347656 "/></clipPath><clipPath id="f1580884d1"><path d="M 129 126 L 217 126 L 217 166 L 129 166 Z M 129 126 "/></clipPath><clipPath id="2ddbf23688"><path d="M 130.007812 31.347656 L 347.152344 116.511719 L 260.621094 337.148438 L 43.472656 251.988281 Z M 130.007812 31.347656 "/></clipPath><clipPath id="397d766c6a"><path d="M 130.007812 31.347656 L 347.152344 116.511719 L 260.621094 337.148438 L 43.472656 251.988281 Z M 130.007812 31.347656 "/></clipPath><clipPath id="06a3718965"><path d="M 130.007812 31.347656 L 347.152344 116.511719 L 260.621094 337.148438 L 43.472656 251.988281 Z M 130.007812 31.347656 "/></clipPath><clipPath id="66f7af4e1c"><path d="M 202 183 L 225 183 L 225 204 L 202 204 Z M 202 183 "/></clipPath><clipPath id="f0b4c9b756"><path d="M 130.007812 31.347656 L 347.152344 116.511719 L 260.621094 337.148438 L 43.472656 251.988281 Z M 130.007812 31.347656 "/></clipPath><clipPath id="d56038d18f"><path d="M 130.007812 31.347656 L 347.152344 116.511719 L 260.621094 337.148438 L 43.472656 251.988281 Z M 130.007812 31.347656 "/></clipPath><clipPath id="f0e3d020b9"><path d="M 130.007812 31.347656 L 347.152344 116.511719 L 260.621094 337.148438 L 43.472656 251.988281 Z M 130.007812 31.347656 "/></clipPath></defs><g id="00f850b0d4"><g clip-rule="nonzero" clip-path="url(#8b0e61d2c0)"><g clip-rule="nonzero" clip-path="url(#c2fdc99983)"><g clip-rule="nonzero" clip-path="url(#890c631b0d)"><g clip-rule="nonzero" clip-path="url(#67510bf12e)"><path style=" stroke:none;fill-rule:nonzero;fill:#90a4ae;fill-opacity:1;" d="M 132.058594 48.839844 C 131.582031 48.660156 131.09375 48.523438 130.589844 48.4375 C 130.089844 48.351562 129.585938 48.316406 129.074219 48.328125 C 128.566406 48.339844 128.0625 48.398438 127.566406 48.507812 C 127.070312 48.617188 126.585938 48.773438 126.121094 48.980469 C 125.652344 49.183594 125.210938 49.429688 124.792969 49.71875 C 124.375 50.007812 123.988281 50.335938 123.632812 50.699219 C 123.277344 51.066406 122.960938 51.460938 122.683594 51.886719 C 122.40625 52.316406 122.171875 52.765625 121.984375 53.238281 L 46.800781 244.9375 C 46.617188 245.414062 46.484375 245.902344 46.398438 246.402344 C 46.308594 246.90625 46.273438 247.410156 46.285156 247.917969 C 46.296875 248.429688 46.359375 248.929688 46.46875 249.429688 C 46.578125 249.925781 46.734375 250.40625 46.9375 250.875 C 47.140625 251.339844 47.390625 251.78125 47.679688 252.199219 C 47.96875 252.621094 48.296875 253.003906 48.660156 253.359375 C 49.027344 253.714844 49.421875 254.03125 49.851562 254.308594 C 50.277344 254.585938 50.726562 254.820312 51.199219 255.011719 L 195.941406 311.777344 C 196.417969 311.960938 196.90625 312.09375 197.40625 312.179688 C 197.910156 312.265625 198.414062 312.304688 198.925781 312.292969 C 199.433594 312.28125 199.9375 312.21875 200.433594 312.109375 C 200.929688 312 201.414062 311.84375 201.878906 311.640625 C 202.34375 311.4375 202.789062 311.191406 203.207031 310.898438 C 203.625 310.609375 204.011719 310.28125 204.367188 309.917969 C 204.722656 309.554688 205.039062 309.15625 205.316406 308.730469 C 205.59375 308.304688 205.828125 307.855469 206.015625 307.382812 L 251.492188 191.425781 C 251.71875 190.855469 251.800781 190.261719 251.742188 189.648438 C 251.6875 189.035156 251.496094 188.46875 251.167969 187.949219 L 237.761719 166.535156 L 267.71875 147.9375 C 268.449219 147.484375 268.972656 146.859375 269.285156 146.058594 L 281.199219 115.679688 C 281.382812 115.207031 281.515625 114.71875 281.601562 114.214844 C 281.6875 113.714844 281.726562 113.207031 281.714844 112.699219 C 281.703125 112.191406 281.640625 111.6875 281.53125 111.191406 C 281.421875 110.695312 281.265625 110.210938 281.0625 109.746094 C 280.855469 109.277344 280.609375 108.835938 280.320312 108.417969 C 280.03125 108 279.703125 107.613281 279.335938 107.257812 C 278.972656 106.902344 278.574219 106.585938 278.148438 106.308594 C 277.722656 106.03125 277.273438 105.796875 276.800781 105.609375 L 229.757812 87.160156 C 229.515625 87.066406 229.261719 87 229.007812 86.957031 C 228.878906 86.9375 228.75 86.925781 228.621094 86.917969 C 228.492188 86.910156 228.363281 86.90625 228.234375 86.90625 C 227.972656 86.921875 227.71875 86.957031 227.464844 87.023438 C 227.339844 87.054688 227.214844 87.089844 227.09375 87.132812 C 226.46875 87.351562 225.9375 87.707031 225.496094 88.199219 C 225.410156 88.296875 225.328125 88.398438 225.25 88.503906 C 225.175781 88.605469 225.101562 88.714844 225.035156 88.824219 C 224.484375 89.769531 224.355469 90.773438 224.648438 91.828125 C 224.679688 91.953125 224.71875 92.078125 224.765625 92.199219 C 225.054688 92.945312 225.53125 93.546875 226.195312 94 C 226.300781 94.074219 226.410156 94.140625 226.523438 94.207031 C 226.652344 94.277344 226.785156 94.339844 226.921875 94.394531 L 219.828125 112.480469 L 169.167969 92.609375 L 176.261719 74.523438 C 176.289062 74.457031 176.195312 74.5 176.28125 74.535156 C 176.761719 74.722656 177.261719 74.808594 177.777344 74.796875 C 178.292969 74.785156 178.785156 74.675781 179.257812 74.46875 C 179.726562 74.261719 180.140625 73.972656 180.5 73.597656 C 180.855469 73.226562 181.125 72.800781 181.3125 72.320312 C 181.5 71.839844 181.585938 71.34375 181.574219 70.828125 C 181.5625 70.3125 181.453125 69.820312 181.246094 69.347656 C 181.039062 68.875 180.75 68.460938 180.375 68.105469 C 180.003906 67.75 179.578125 67.476562 179.097656 67.292969 L 179.074219 67.28125 Z M 132.058594 48.839844 "/></g></g></g></g><g clip-rule="nonzero" clip-path="url(#c486968c68)"><g clip-rule="nonzero" clip-path="url(#a73f8fd266)"><g clip-rule="nonzero" clip-path="url(#8e8a1714b4)"><g clip-rule="nonzero" clip-path="url(#1929be94ba)"><path style=" stroke:none;fill-rule:nonzero;fill:#fafafa;fill-opacity:1;" d="M 169.785156 80.3125 L 140.859375 68.984375 C 140.382812 68.804688 139.894531 68.667969 139.390625 68.582031 C 138.890625 68.496094 138.382812 68.460938 137.875 68.472656 C 137.367188 68.484375 136.863281 68.542969 136.367188 68.652344 C 135.871094 68.765625 135.386719 68.921875 134.921875 69.125 C 134.453125 69.328125 134.011719 69.574219 133.59375 69.863281 C 133.175781 70.152344 132.789062 70.480469 132.433594 70.847656 C 132.078125 71.210938 131.761719 71.605469 131.484375 72.03125 C 131.207031 72.460938 130.972656 72.910156 130.785156 73.382812 L 66.949219 236.148438 C 66.765625 236.621094 66.632812 237.109375 66.546875 237.613281 C 66.460938 238.113281 66.421875 238.617188 66.433594 239.128906 C 66.445312 239.636719 66.507812 240.140625 66.617188 240.636719 C 66.726562 241.132812 66.882812 241.613281 67.085938 242.082031 C 67.292969 242.546875 67.539062 242.992188 67.828125 243.410156 C 68.117188 243.828125 68.445312 244.214844 68.8125 244.570312 C 69.175781 244.921875 69.570312 245.238281 70 245.515625 C 70.425781 245.796875 70.875 246.027344 71.347656 246.21875 L 187.140625 291.632812 C 187.617188 291.8125 188.105469 291.949219 188.609375 292.035156 C 189.109375 292.121094 189.617188 292.160156 190.125 292.148438 C 190.632812 292.136719 191.136719 292.074219 191.632812 291.964844 C 192.128906 291.855469 192.613281 291.699219 193.078125 291.496094 C 193.546875 291.292969 193.988281 291.042969 194.40625 290.753906 C 194.824219 290.464844 195.210938 290.136719 195.566406 289.773438 C 195.921875 289.40625 196.238281 289.011719 196.515625 288.585938 C 196.792969 288.160156 197.027344 287.710938 197.214844 287.238281 L 232.621094 196.96875 C 232.875 196.3125 232.949219 195.636719 232.839844 194.941406 C 232.730469 194.25 232.449219 193.628906 232.003906 193.085938 C 231.558594 192.542969 231.003906 192.148438 230.34375 191.90625 C 229.683594 191.660156 229.007812 191.601562 228.316406 191.726562 L 215.179688 194.066406 L 235.019531 168.261719 L 245.652344 161.640625 C 246.378906 161.183594 246.898438 160.558594 247.210938 159.757812 L 261.050781 124.472656 C 261.234375 123.996094 261.367188 123.507812 261.453125 123.007812 C 261.539062 122.503906 261.578125 122 261.566406 121.492188 C 261.554688 120.980469 261.492188 120.480469 261.382812 119.980469 C 261.273438 119.484375 261.117188 119.003906 260.910156 118.535156 C 260.707031 118.070312 260.460938 117.628906 260.171875 117.207031 C 259.882812 116.789062 259.554688 116.402344 259.1875 116.050781 C 258.824219 115.695312 258.425781 115.378906 258 115.101562 C 257.574219 114.824219 257.125 114.589844 256.652344 114.398438 L 256.644531 114.394531 L 227.765625 103.117188 C 227.285156 102.929688 226.792969 102.839844 226.277344 102.851562 C 225.765625 102.859375 225.273438 102.964844 224.800781 103.167969 C 224.332031 103.375 223.914062 103.660156 223.558594 104.027344 C 223.199219 104.394531 222.925781 104.816406 222.734375 105.292969 L 219.929688 112.34375 C 219.929688 112.34375 219.867188 112.414062 219.820312 112.472656 L 169.191406 92.617188 L 169.191406 92.554688 L 171.988281 85.335938 C 172.171875 84.859375 172.261719 84.359375 172.25 83.847656 C 172.238281 83.332031 172.128906 82.839844 171.921875 82.371094 C 171.714844 81.898438 171.425781 81.488281 171.054688 81.128906 C 170.683594 80.773438 170.261719 80.503906 169.78125 80.316406 Z M 169.785156 80.3125 "/></g></g></g></g><g clip-rule="nonzero" clip-path="url(#dd2a42959b)"><g clip-rule="nonzero" clip-path="url(#b3de0cc058)"><g clip-rule="nonzero" clip-path="url(#b264646809)"><g clip-rule="nonzero" clip-path="url(#67b500d427)"><path style=" stroke:none;fill-rule:nonzero;fill:#b0bec5;fill-opacity:1;" d="M 199.238281 58.507812 C 198.761719 58.328125 198.273438 58.191406 197.773438 58.105469 C 197.269531 58.019531 196.765625 57.980469 196.257812 57.996094 C 195.746094 58.007812 195.246094 58.066406 194.746094 58.175781 C 194.25 58.285156 193.769531 58.445312 193.300781 58.648438 C 192.835938 58.851562 192.394531 59.097656 191.972656 59.386719 C 191.554688 59.675781 191.167969 60.003906 190.8125 60.367188 C 190.460938 60.734375 190.144531 61.128906 189.867188 61.554688 C 189.589844 61.980469 189.355469 62.429688 189.164062 62.902344 L 186.375 70.097656 L 179.097656 67.273438 C 178.621094 67.09375 178.132812 66.960938 177.632812 66.875 C 177.128906 66.792969 176.625 66.753906 176.117188 66.765625 C 175.609375 66.78125 175.105469 66.839844 174.609375 66.953125 C 174.113281 67.0625 173.628906 67.21875 173.164062 67.421875 C 172.699219 67.625 172.253906 67.871094 171.835938 68.160156 C 171.417969 68.449219 171.03125 68.777344 170.675781 69.140625 C 170.320312 69.503906 170.003906 69.898438 169.726562 70.324219 C 169.449219 70.75 169.210938 71.199219 169.019531 71.671875 L 161.921875 89.773438 C 161.738281 90.25 161.605469 90.738281 161.519531 91.238281 C 161.433594 91.742188 161.398438 92.246094 161.410156 92.753906 C 161.421875 93.265625 161.480469 93.765625 161.59375 94.265625 C 161.703125 94.761719 161.859375 95.242188 162.0625 95.710938 C 162.265625 96.175781 162.511719 96.617188 162.804688 97.035156 C 163.09375 97.457031 163.421875 97.84375 163.785156 98.195312 C 164.152344 98.550781 164.546875 98.867188 164.972656 99.144531 C 165.402344 99.421875 165.851562 99.65625 166.324219 99.847656 L 216.992188 119.71875 C 217.46875 119.902344 217.957031 120.035156 218.460938 120.121094 C 218.960938 120.207031 219.46875 120.246094 219.976562 120.234375 C 220.484375 120.222656 220.988281 120.160156 221.484375 120.050781 C 221.984375 119.941406 222.464844 119.785156 222.929688 119.582031 C 223.398438 119.378906 223.839844 119.132812 224.257812 118.84375 C 224.679688 118.550781 225.066406 118.226562 225.417969 117.859375 C 225.773438 117.496094 226.089844 117.097656 226.367188 116.671875 C 226.644531 116.246094 226.878906 115.796875 227.070312 115.324219 L 234.167969 97.222656 C 234.351562 96.75 234.484375 96.261719 234.570312 95.761719 C 234.65625 95.261719 234.695312 94.757812 234.683594 94.25 C 234.671875 93.742188 234.613281 93.238281 234.503906 92.742188 C 234.394531 92.246094 234.238281 91.765625 234.035156 91.300781 C 233.832031 90.832031 233.589844 90.390625 233.300781 89.972656 C 233.011719 89.554688 232.683594 89.167969 232.320312 88.8125 C 231.957031 88.457031 231.5625 88.140625 231.136719 87.863281 C 230.714844 87.585938 230.265625 87.351562 229.792969 87.160156 L 229.769531 87.148438 L 222.566406 84.292969 L 225.363281 77.070312 C 225.542969 76.597656 225.675781 76.109375 225.761719 75.609375 C 225.847656 75.109375 225.882812 74.601562 225.871094 74.09375 C 225.855469 73.585938 225.796875 73.085938 225.683594 72.589844 C 225.574219 72.09375 225.417969 71.613281 225.210938 71.148438 C 225.007812 70.683594 224.761719 70.242188 224.472656 69.824219 C 224.179688 69.40625 223.851562 69.023438 223.488281 68.667969 C 223.125 68.316406 222.726562 68 222.300781 67.722656 C 221.875 67.445312 221.425781 67.214844 220.953125 67.023438 Z M 199.238281 58.507812 "/></g></g></g></g><g clip-rule="nonzero" clip-path="url(#c7306ef40f)"><g clip-rule="nonzero" clip-path="url(#2a29d5b652)"><g clip-rule="nonzero" clip-path="url(#d90d0f32a5)"><g clip-rule="nonzero" clip-path="url(#ca00efca9c)"><path style=" stroke:none;fill-rule:nonzero;fill:#616161;fill-opacity:1;" d="M 108.855469 192.070312 C 108.367188 191.910156 107.867188 191.847656 107.351562 191.886719 C 106.839844 191.925781 106.355469 192.058594 105.894531 192.289062 C 105.433594 192.523438 105.039062 192.832031 104.699219 193.21875 C 104.363281 193.609375 104.113281 194.046875 103.953125 194.535156 C 103.789062 195.023438 103.726562 195.523438 103.761719 196.035156 C 103.796875 196.546875 103.929688 197.035156 104.15625 197.496094 C 104.386719 197.957031 104.691406 198.355469 105.082031 198.695312 C 105.46875 199.03125 105.902344 199.285156 106.390625 199.449219 L 193.230469 233.507812 C 193.710938 233.699219 194.207031 233.785156 194.722656 233.777344 C 195.238281 233.769531 195.734375 233.660156 196.207031 233.453125 C 196.679688 233.246094 197.09375 232.957031 197.449219 232.585938 C 197.808594 232.214844 198.082031 231.789062 198.269531 231.3125 C 198.457031 230.832031 198.546875 230.332031 198.535156 229.820312 C 198.527344 229.304688 198.417969 228.808594 198.210938 228.335938 C 198.007812 227.863281 197.71875 227.449219 197.347656 227.09375 C 196.976562 226.734375 196.550781 226.460938 196.070312 226.273438 L 109.226562 192.214844 C 109.105469 192.160156 108.980469 192.109375 108.855469 192.070312 Z M 108.855469 192.070312 "/></g></g></g></g><g clip-rule="nonzero" clip-path="url(#5871133a8e)"><g clip-rule="nonzero" clip-path="url(#762e92ba47)"><g clip-rule="nonzero" clip-path="url(#a52bf59db6)"><g clip-rule="nonzero" clip-path="url(#b0c85a7c5b)"><path style=" stroke:none;fill-rule:nonzero;fill:#616161;fill-opacity:1;" d="M 117.742188 170.507812 C 117.261719 170.316406 116.765625 170.226562 116.25 170.234375 C 115.734375 170.242188 115.238281 170.347656 114.765625 170.554688 C 114.292969 170.757812 113.878906 171.046875 113.519531 171.414062 C 113.160156 171.785156 112.886719 172.210938 112.695312 172.6875 C 112.507812 173.167969 112.414062 173.664062 112.421875 174.179688 C 112.429688 174.695312 112.539062 175.191406 112.742188 175.664062 C 112.949219 176.136719 113.234375 176.550781 113.605469 176.910156 C 113.976562 177.269531 114.398438 177.542969 114.878906 177.734375 L 187.265625 206.125 C 187.746094 206.3125 188.242188 206.402344 188.757812 206.394531 C 189.273438 206.386719 189.765625 206.277344 190.238281 206.074219 C 190.710938 205.871094 191.125 205.582031 191.484375 205.210938 C 191.84375 204.84375 192.117188 204.417969 192.304688 203.941406 C 192.496094 203.460938 192.585938 202.964844 192.578125 202.449219 C 192.570312 201.9375 192.464844 201.441406 192.261719 200.96875 C 192.058594 200.496094 191.769531 200.082031 191.402344 199.722656 C 191.03125 199.363281 190.609375 199.089844 190.128906 198.898438 Z M 117.742188 170.507812 "/></g></g></g></g><g clip-rule="nonzero" clip-path="url(#19963c765d)"><g clip-rule="nonzero" clip-path="url(#40777873e9)"><g clip-rule="nonzero" clip-path="url(#f228fe6e16)"><g clip-rule="nonzero" clip-path="url(#6513d1e5f3)"><path style=" stroke:none;fill-rule:nonzero;fill:#616161;fill-opacity:1;" d="M 100.339844 213.777344 C 99.851562 213.617188 99.351562 213.554688 98.839844 213.59375 C 98.324219 213.632812 97.839844 213.765625 97.378906 213.996094 C 96.921875 214.230469 96.523438 214.539062 96.1875 214.925781 C 95.851562 215.316406 95.601562 215.753906 95.4375 216.242188 C 95.273438 216.730469 95.210938 217.230469 95.246094 217.742188 C 95.28125 218.253906 95.414062 218.742188 95.644531 219.203125 C 95.871094 219.664062 96.179688 220.0625 96.566406 220.402344 C 96.953125 220.742188 97.390625 220.992188 97.878906 221.160156 L 184.71875 255.21875 C 185.199219 255.40625 185.695312 255.496094 186.210938 255.484375 C 186.726562 255.476562 187.21875 255.367188 187.691406 255.160156 C 188.164062 254.953125 188.578125 254.667969 188.9375 254.296875 C 189.296875 253.921875 189.566406 253.5 189.757812 253.019531 C 189.945312 252.539062 190.035156 252.042969 190.023438 251.527344 C 190.015625 251.011719 189.90625 250.515625 189.699219 250.042969 C 189.492188 249.570312 189.203125 249.15625 188.832031 248.800781 C 188.460938 248.441406 188.035156 248.167969 187.554688 247.980469 L 100.714844 213.921875 C 100.59375 213.867188 100.46875 213.820312 100.339844 213.777344 Z M 100.339844 213.777344 "/></g></g></g></g><g clip-rule="nonzero" clip-path="url(#e165abca89)"><g clip-rule="nonzero" clip-path="url(#c9c7c641e6)"><g clip-rule="nonzero" clip-path="url(#aebcc75324)"><g clip-rule="nonzero" clip-path="url(#9593ba2165)"><path style=" stroke:none;fill-rule:nonzero;fill:#42a5f5;fill-opacity:1;" d="M 318.691406 109.453125 C 317.675781 109.292969 316.664062 109.328125 315.664062 109.550781 C 314.660156 109.773438 313.730469 110.171875 312.878906 110.75 L 230.34375 161.988281 C 229.90625 162.261719 229.535156 162.605469 229.234375 163.023438 C 228.933594 163.441406 228.726562 163.902344 228.605469 164.40625 C 228.488281 164.90625 228.472656 165.410156 228.558594 165.921875 C 228.640625 166.429688 228.820312 166.902344 229.089844 167.339844 L 229.101562 167.355469 L 245.585938 193.691406 C 245.859375 194.128906 246.203125 194.5 246.621094 194.800781 C 247.039062 195.101562 247.5 195.308594 248.003906 195.425781 C 248.503906 195.546875 249.011719 195.5625 249.519531 195.476562 C 250.027344 195.394531 250.5 195.21875 250.941406 194.945312 L 250.957031 194.933594 L 333.445312 143.738281 C 334.386719 143.246094 335.191406 142.585938 335.859375 141.761719 C 336.523438 140.933594 337 140.011719 337.28125 138.988281 C 337.46875 137.949219 337.445312 136.917969 337.210938 135.890625 C 336.976562 134.863281 336.550781 133.921875 335.9375 133.066406 L 323.703125 113.175781 C 323.160156 112.234375 322.457031 111.441406 321.585938 110.792969 C 320.710938 110.144531 319.75 109.699219 318.691406 109.453125 Z M 318.691406 109.453125 "/></g></g></g></g><g clip-rule="nonzero" clip-path="url(#799bcee53b)"><g clip-rule="nonzero" clip-path="url(#1b6865b46d)"><g clip-rule="nonzero" clip-path="url(#ce5fe252f5)"><g clip-rule="nonzero" clip-path="url(#15bcbf1d87)"><path style=" stroke:none;fill-rule:nonzero;fill:#616161;fill-opacity:1;" d="M 299.632812 139.65625 C 299.042969 139.398438 298.429688 139.296875 297.789062 139.34375 C 297.148438 139.394531 296.554688 139.589844 296.011719 139.929688 L 257.003906 163.632812 C 256.570312 163.90625 256.203125 164.25 255.902344 164.664062 C 255.601562 165.082031 255.394531 165.539062 255.277344 166.039062 C 255.15625 166.535156 255.136719 167.039062 255.21875 167.542969 C 255.300781 168.050781 255.472656 168.523438 255.738281 168.960938 C 256.007812 169.398438 256.347656 169.769531 256.761719 170.070312 C 257.175781 170.375 257.628906 170.589844 258.128906 170.710938 C 258.625 170.835938 259.128906 170.859375 259.636719 170.78125 C 260.144531 170.707031 260.617188 170.539062 261.054688 170.277344 L 300.066406 146.574219 C 300.695312 146.203125 301.183594 145.691406 301.527344 145.046875 C 301.867188 144.402344 302.019531 143.710938 301.972656 142.984375 C 301.925781 142.253906 301.691406 141.589844 301.273438 140.988281 C 300.851562 140.390625 300.304688 139.945312 299.632812 139.65625 Z M 299.632812 139.65625 "/></g></g></g></g><g clip-rule="nonzero" clip-path="url(#9b49a30bef)"><g clip-rule="nonzero" clip-path="url(#021a93317b)"><g clip-rule="nonzero" clip-path="url(#9bba26f0d8)"><g clip-rule="nonzero" clip-path="url(#92f2357c7e)"><path style=" stroke:none;fill-rule:nonzero;fill:#fff59d;fill-opacity:1;" d="M 233.789062 161.769531 C 233.390625 161.601562 232.976562 161.5 232.546875 161.46875 C 232.117188 161.4375 231.695312 161.476562 231.277344 161.585938 C 230.859375 161.695312 230.472656 161.871094 230.113281 162.109375 C 229.753906 162.347656 229.445312 162.640625 229.183594 162.980469 L 202.90625 197.285156 C 202.671875 197.597656 202.488281 197.9375 202.355469 198.304688 C 202.226562 198.667969 202.148438 199.046875 202.128906 199.4375 C 202.113281 199.824219 202.152344 200.210938 202.246094 200.585938 C 202.34375 200.964844 202.496094 201.320312 202.699219 201.652344 C 202.902344 201.984375 203.152344 202.28125 203.441406 202.539062 C 203.734375 202.796875 204.058594 203.003906 204.414062 203.164062 C 204.769531 203.324219 205.140625 203.429688 205.527344 203.476562 C 205.914062 203.527344 206.300781 203.519531 206.683594 203.449219 L 249.660156 195.566406 C 249.96875 195.507812 250.269531 195.410156 250.558594 195.277344 C 250.847656 195.148438 251.113281 194.980469 251.363281 194.785156 C 251.609375 194.585938 251.828125 194.359375 252.023438 194.109375 C 252.214844 193.859375 252.375 193.585938 252.5 193.296875 C 252.628906 193.003906 252.714844 192.703125 252.769531 192.390625 C 252.820312 192.078125 252.835938 191.761719 252.808594 191.449219 C 252.785156 191.132812 252.722656 190.824219 252.621094 190.523438 C 252.523438 190.222656 252.386719 189.9375 252.21875 189.667969 L 235.535156 163.285156 C 235.109375 162.597656 234.527344 162.09375 233.789062 161.769531 Z M 233.789062 161.769531 "/></g></g></g></g><g clip-rule="nonzero" clip-path="url(#b51916ee91)"><g clip-rule="nonzero" clip-path="url(#1b5de095b0)"><g clip-rule="nonzero" clip-path="url(#ecf900f1f7)"><g clip-rule="nonzero" clip-path="url(#ff254e54aa)"><path style=" stroke:none;fill-rule:nonzero;fill:#ef5350;fill-opacity:1;" d="M 318.691406 109.453125 C 317.675781 109.296875 316.664062 109.332031 315.664062 109.554688 C 314.660156 109.777344 313.734375 110.175781 312.878906 110.75 L 312.84375 110.765625 L 298.9375 119.820312 L 319.273438 152.445312 L 322.558594 150.4375 L 333.445312 143.738281 C 334.386719 143.246094 335.1875 142.589844 335.855469 141.761719 C 336.523438 140.9375 336.996094 140.011719 337.277344 138.988281 C 337.464844 137.953125 337.441406 136.921875 337.207031 135.894531 C 336.972656 134.867188 336.550781 133.925781 335.933594 133.070312 L 323.703125 113.175781 C 323.160156 112.234375 322.453125 111.441406 321.582031 110.792969 C 320.710938 110.144531 319.746094 109.699219 318.691406 109.453125 Z M 318.691406 109.453125 "/></g></g></g></g><g clip-rule="nonzero" clip-path="url(#ee4b224964)"><g clip-rule="nonzero" clip-path="url(#43d07a99bd)"><g clip-rule="nonzero" clip-path="url(#92a946697d)"><g clip-rule="nonzero" clip-path="url(#5d21f329bd)"><path style=" stroke:none;fill-rule:nonzero;fill:#616161;fill-opacity:1;" d="M 126.253906 148.800781 C 125.777344 148.609375 125.277344 148.519531 124.761719 148.527344 C 124.246094 148.535156 123.753906 148.640625 123.28125 148.847656 C 122.808594 149.050781 122.390625 149.339844 122.03125 149.707031 C 121.675781 150.078125 121.398438 150.503906 121.210938 150.980469 C 121.019531 151.460938 120.929688 151.957031 120.9375 152.472656 C 120.945312 152.988281 121.050781 153.480469 121.257812 153.953125 C 121.460938 154.425781 121.75 154.84375 122.121094 155.203125 C 122.488281 155.5625 122.914062 155.835938 123.394531 156.023438 L 195.78125 184.414062 C 196.261719 184.605469 196.757812 184.695312 197.273438 184.6875 C 197.789062 184.679688 198.28125 184.574219 198.753906 184.371094 C 199.226562 184.164062 199.644531 183.878906 200.003906 183.507812 C 200.363281 183.136719 200.636719 182.714844 200.824219 182.234375 C 201.015625 181.753906 201.105469 181.257812 201.097656 180.742188 C 201.089844 180.226562 200.984375 179.734375 200.777344 179.261719 C 200.574219 178.789062 200.285156 178.371094 199.917969 178.011719 C 199.546875 177.65625 199.121094 177.378906 198.644531 177.191406 Z M 126.253906 148.800781 "/></g></g></g></g><g clip-rule="nonzero" clip-path="url(#f1580884d1)"><g clip-rule="nonzero" clip-path="url(#2ddbf23688)"><g clip-rule="nonzero" clip-path="url(#397d766c6a)"><g clip-rule="nonzero" clip-path="url(#06a3718965)"><path style=" stroke:none;fill-rule:nonzero;fill:#616161;fill-opacity:1;" d="M 134.386719 126.972656 C 133.898438 126.824219 133.402344 126.769531 132.894531 126.816406 C 132.390625 126.859375 131.910156 127 131.457031 127.230469 C 131.007812 127.464844 130.613281 127.773438 130.285156 128.15625 C 129.953125 128.542969 129.707031 128.976562 129.546875 129.460938 C 129.382812 129.941406 129.320312 130.4375 129.355469 130.945312 C 129.386719 131.449219 129.515625 131.933594 129.734375 132.390625 C 129.957031 132.847656 130.257812 133.246094 130.636719 133.585938 C 131.015625 133.925781 131.441406 134.183594 131.921875 134.355469 L 211.523438 165.574219 C 212.003906 165.761719 212.5 165.851562 213.015625 165.839844 C 213.53125 165.832031 214.023438 165.722656 214.496094 165.515625 C 214.96875 165.3125 215.382812 165.023438 215.742188 164.652344 C 216.097656 164.28125 216.371094 163.855469 216.558594 163.375 C 216.75 162.894531 216.835938 162.398438 216.828125 161.882812 C 216.816406 161.367188 216.710938 160.875 216.503906 160.402344 C 216.296875 159.929688 216.007812 159.515625 215.636719 159.15625 C 215.265625 158.800781 214.839844 158.527344 214.359375 158.339844 L 134.757812 127.121094 C 134.636719 127.066406 134.511719 127.015625 134.382812 126.972656 Z M 134.386719 126.972656 "/></g></g></g></g><g clip-rule="nonzero" clip-path="url(#66f7af4e1c)"><g clip-rule="nonzero" clip-path="url(#f0b4c9b756)"><g clip-rule="nonzero" clip-path="url(#d56038d18f)"><g clip-rule="nonzero" clip-path="url(#f0e3d020b9)"><path style=" stroke:none;fill-rule:nonzero;fill:#424242;fill-opacity:1;" d="M 213.683594 183.214844 L 202.90625 197.285156 C 202.671875 197.597656 202.488281 197.933594 202.355469 198.300781 C 202.222656 198.667969 202.148438 199.046875 202.128906 199.4375 C 202.109375 199.824219 202.148438 200.207031 202.246094 200.585938 C 202.34375 200.964844 202.492188 201.320312 202.699219 201.652344 C 202.902344 201.984375 203.148438 202.277344 203.441406 202.535156 C 203.734375 202.792969 204.058594 203.003906 204.414062 203.164062 C 204.769531 203.324219 205.140625 203.429688 205.527344 203.476562 C 205.914062 203.527344 206.300781 203.515625 206.683594 203.449219 L 224.496094 200.097656 Z M 213.683594 183.214844 "/></g></g></g></g></g></svg>