<svg xmlns="http://www.w3.org/2000/svg" xmlns:xlink="http://www.w3.org/1999/xlink" width="500" zoomAndPan="magnify" viewBox="0 0 375 374.999991" height="500" preserveAspectRatio="xMidYMid meet" version="1.2"><defs><clipPath id="185e174ed2"><path d="M 80.726562 207 L 294.476562 207 L 294.476562 294.191406 L 80.726562 294.191406 Z M 80.726562 207 "/></clipPath><clipPath id="37b4743c61"><path d="M 81 207 L 294.476562 207 L 294.476562 294 L 81 294 Z M 81 207 "/></clipPath><clipPath id="eb13804f2a"><path d="M 80.726562 163 L 294.476562 163 L 294.476562 249 L 80.726562 249 Z M 80.726562 163 "/></clipPath><clipPath id="2130cf5b31"><path d="M 81 164 L 294.476562 164 L 294.476562 248 L 81 248 Z M 81 164 "/></clipPath><clipPath id="1bc079a76c"><path d="M 80.726562 120 L 294.476562 120 L 294.476562 205 L 80.726562 205 Z M 80.726562 120 "/></clipPath><clipPath id="4bdbe3bd58"><path d="M 81 121 L 294.476562 121 L 294.476562 205 L 81 205 Z M 81 121 "/></clipPath><clipPath id="acb200c721"><path d="M 80.726562 80.441406 L 294.476562 80.441406 L 294.476562 267 L 80.726562 267 Z M 80.726562 80.441406 "/></clipPath><clipPath id="b2231f0a62"><path d="M 81 80.441406 L 294.476562 80.441406 L 294.476562 267 L 81 267 Z M 81 80.441406 "/></clipPath></defs><g id="2ee7553fc3"><g clip-rule="nonzero" clip-path="url(#185e174ed2)"><path style=" stroke:none;fill-rule:nonzero;fill:#064d6d;fill-opacity:1;" d="M 187.597656 294.191406 C 159.109375 294.191406 132.316406 289.996094 112.160156 282.382812 C 91.902344 274.730469 80.742188 264.511719 80.738281 253.613281 L 80.738281 207.4375 C 80.738281 207.25 80.890625 207.097656 81.082031 207.097656 C 81.269531 207.097656 81.421875 207.25 81.421875 207.4375 C 81.421875 215.625 88.023438 223.503906 100.507812 230.222656 C 120.40625 240.9375 152.960938 247.332031 187.597656 247.332031 C 222.234375 247.332031 254.792969 240.9375 274.691406 230.222656 C 287.175781 223.503906 293.777344 215.625 293.777344 207.4375 C 293.777344 207.25 293.929688 207.097656 294.117188 207.097656 C 294.308594 207.097656 294.460938 207.25 294.460938 207.4375 L 294.460938 253.613281 C 294.457031 264.511719 283.296875 274.730469 263.039062 282.382812 C 242.882812 289.996094 216.089844 294.191406 187.597656 294.191406 Z M 273.3125 244.09375 C 267.34375 244.09375 262.484375 248.941406 262.484375 254.894531 C 262.484375 260.851562 267.34375 265.695312 273.3125 265.695312 C 279.285156 265.695312 284.144531 260.851562 284.144531 254.894531 C 284.144531 248.941406 279.285156 244.09375 273.3125 244.09375 Z M 273.3125 244.09375 "/></g><g clip-rule="nonzero" clip-path="url(#37b4743c61)"><path style=" stroke:none;fill-rule:nonzero;fill:#064d6d;fill-opacity:1;" d="M 274.855469 230.523438 C 255.589844 240.894531 223.691406 247.675781 187.597656 247.675781 C 151.507812 247.675781 119.609375 240.894531 100.34375 230.523438 C 88.203125 223.988281 81.082031 216.03125 81.082031 207.4375 L 81.082031 253.613281 C 81.085938 275.835938 128.773438 293.851562 187.597656 293.851562 C 246.425781 293.851562 294.113281 275.835938 294.117188 253.613281 L 294.117188 207.4375 C 294.117188 216.03125 286.996094 223.988281 274.855469 230.523438 Z M 273.3125 266.039062 C 267.144531 266.039062 262.140625 261.050781 262.140625 254.894531 C 262.140625 248.742188 267.144531 243.753906 273.3125 243.753906 C 279.484375 243.753906 284.484375 248.742188 284.484375 254.894531 C 284.484375 261.050781 279.484375 266.039062 273.3125 266.039062 Z M 273.3125 266.039062 "/></g><g clip-rule="nonzero" clip-path="url(#eb13804f2a)"><path style=" stroke:none;fill-rule:nonzero;fill:#0a699e;fill-opacity:1;" d="M 187.597656 248.015625 C 152.855469 248.015625 120.175781 241.589844 100.183594 230.820312 C 87.460938 223.976562 80.738281 215.890625 80.738281 207.4375 L 80.738281 164.230469 C 80.738281 164.042969 80.890625 163.890625 81.082031 163.890625 C 81.269531 163.890625 81.421875 164.042969 81.421875 164.230469 C 81.421875 172.417969 88.023438 180.296875 100.507812 187.015625 C 120.40625 197.730469 152.960938 204.128906 187.597656 204.128906 C 222.234375 204.128906 254.792969 197.730469 274.691406 187.015625 C 287.175781 180.296875 293.777344 172.417969 293.777344 164.230469 C 293.777344 164.042969 293.929688 163.890625 294.117188 163.890625 C 294.308594 163.890625 294.460938 164.042969 294.460938 164.230469 L 294.460938 207.4375 C 294.460938 215.890625 287.738281 223.976562 275.015625 230.820312 C 255.023438 241.589844 222.34375 248.015625 187.597656 248.015625 Z M 273.3125 200.890625 C 267.34375 200.890625 262.484375 205.734375 262.484375 211.691406 C 262.484375 217.644531 267.34375 222.492188 273.3125 222.492188 C 279.285156 222.492188 284.144531 217.644531 284.144531 211.691406 C 284.144531 205.734375 279.285156 200.890625 273.3125 200.890625 Z M 273.3125 200.890625 "/></g><g clip-rule="nonzero" clip-path="url(#2130cf5b31)"><path style=" stroke:none;fill-rule:nonzero;fill:#0a699e;fill-opacity:1;" d="M 274.855469 187.316406 C 255.589844 197.6875 223.691406 204.46875 187.597656 204.46875 C 151.507812 204.46875 119.609375 197.6875 100.34375 187.316406 C 88.203125 180.785156 81.082031 172.824219 81.082031 164.230469 L 81.082031 207.4375 C 81.082031 216.03125 88.203125 223.988281 100.34375 230.523438 C 119.609375 240.894531 151.507812 247.675781 187.597656 247.675781 C 223.691406 247.675781 255.589844 240.894531 274.855469 230.523438 C 286.996094 223.988281 294.117188 216.03125 294.117188 207.4375 L 294.117188 164.230469 C 294.117188 172.824219 286.996094 180.785156 274.855469 187.316406 Z M 273.3125 222.832031 C 267.144531 222.832031 262.140625 217.84375 262.140625 211.691406 C 262.140625 205.535156 267.144531 200.546875 273.3125 200.546875 C 279.484375 200.546875 284.484375 205.535156 284.484375 211.691406 C 284.484375 217.84375 279.484375 222.832031 273.3125 222.832031 Z M 273.3125 222.832031 "/></g><g clip-rule="nonzero" clip-path="url(#1bc079a76c)"><path style=" stroke:none;fill-rule:nonzero;fill:#1986cf;fill-opacity:1;" d="M 187.597656 204.808594 C 152.855469 204.808594 120.175781 198.382812 100.183594 187.617188 C 87.460938 180.773438 80.738281 172.6875 80.738281 164.230469 L 80.738281 121.027344 C 80.738281 120.839844 80.890625 120.683594 81.082031 120.683594 C 81.269531 120.683594 81.421875 120.839844 81.421875 121.027344 C 81.421875 129.214844 88.023438 137.09375 100.507812 143.808594 C 120.40625 154.523438 152.960938 160.921875 187.597656 160.921875 C 222.234375 160.921875 254.792969 154.523438 274.691406 143.808594 C 287.175781 137.09375 293.777344 129.214844 293.777344 121.027344 C 293.777344 120.839844 293.929688 120.683594 294.117188 120.683594 C 294.308594 120.683594 294.460938 120.839844 294.460938 121.027344 L 294.460938 164.230469 C 294.460938 172.6875 287.738281 180.773438 275.015625 187.617188 C 255.023438 198.382812 222.34375 204.808594 187.597656 204.808594 Z M 273.3125 157.683594 C 267.34375 157.683594 262.484375 162.527344 262.484375 168.484375 C 262.484375 174.4375 267.34375 179.285156 273.3125 179.285156 C 279.285156 179.285156 284.144531 174.4375 284.144531 168.484375 C 284.144531 162.527344 279.285156 157.683594 273.3125 157.683594 Z M 273.3125 157.683594 "/></g><g clip-rule="nonzero" clip-path="url(#4bdbe3bd58)"><path style=" stroke:none;fill-rule:nonzero;fill:#1986cf;fill-opacity:1;" d="M 274.855469 144.109375 C 255.589844 154.484375 223.691406 161.261719 187.597656 161.261719 C 151.507812 161.261719 119.609375 154.484375 100.34375 144.109375 C 88.203125 137.578125 81.082031 129.617188 81.082031 121.027344 L 81.082031 164.230469 C 81.082031 172.824219 88.203125 180.785156 100.34375 187.316406 C 119.609375 197.6875 151.507812 204.46875 187.597656 204.46875 C 223.691406 204.46875 255.589844 197.6875 274.855469 187.316406 C 286.996094 180.785156 294.117188 172.824219 294.117188 164.230469 L 294.117188 121.027344 C 294.117188 129.617188 286.996094 137.578125 274.855469 144.109375 Z M 273.3125 179.625 C 267.144531 179.625 262.140625 174.636719 262.140625 168.484375 C 262.140625 162.332031 267.144531 157.34375 273.3125 157.34375 C 279.484375 157.34375 284.484375 162.332031 284.484375 168.484375 C 284.484375 174.636719 279.484375 179.625 273.3125 179.625 Z M 273.3125 179.625 "/></g><g clip-rule="nonzero" clip-path="url(#acb200c721)"><path style=" stroke:none;fill-rule:nonzero;fill:#a4b9fb;fill-opacity:1;" d="M 273.3125 266.378906 C 266.964844 266.378906 261.800781 261.226562 261.800781 254.894531 C 261.800781 248.566406 266.964844 243.414062 273.3125 243.414062 C 279.660156 243.414062 284.828125 248.566406 284.828125 254.894531 C 284.828125 261.226562 279.660156 266.378906 273.3125 266.378906 Z M 273.3125 223.171875 C 266.964844 223.171875 261.800781 218.019531 261.800781 211.691406 C 261.800781 205.359375 266.964844 200.207031 273.3125 200.207031 C 279.660156 200.207031 284.828125 205.359375 284.828125 211.691406 C 284.828125 218.019531 279.660156 223.171875 273.3125 223.171875 Z M 273.3125 179.964844 C 266.964844 179.964844 261.800781 174.816406 261.800781 168.484375 C 261.800781 162.152344 266.964844 157.003906 273.3125 157.003906 C 279.660156 157.003906 284.828125 162.152344 284.828125 168.484375 C 284.828125 174.816406 279.660156 179.964844 273.3125 179.964844 Z M 187.597656 161.601562 C 152.855469 161.601562 120.175781 155.175781 100.183594 144.410156 C 87.460938 137.566406 80.738281 129.480469 80.738281 121.027344 C 80.738281 120.546875 80.757812 120.109375 80.792969 119.683594 C 81.695312 109.074219 93.242188 99.179688 113.3125 91.820312 C 133.328125 84.484375 159.710938 80.441406 187.597656 80.441406 C 215.484375 80.441406 241.867188 84.484375 261.886719 91.820312 C 281.957031 99.179688 293.503906 109.074219 294.40625 119.6875 C 294.441406 120.109375 294.460938 120.546875 294.460938 121.027344 C 294.460938 129.480469 287.738281 137.566406 275.015625 144.410156 C 255.023438 155.175781 222.34375 161.601562 187.597656 161.601562 Z M 187.597656 161.601562 "/></g><g clip-rule="nonzero" clip-path="url(#b2231f0a62)"><path style=" stroke:none;fill-rule:nonzero;fill:#a4b9fb;fill-opacity:1;" d="M 81.082031 121.027344 C 81.082031 120.585938 81.097656 120.15625 81.132812 119.714844 C 82.96875 98.097656 129.933594 80.78125 187.597656 80.78125 C 245.265625 80.78125 292.230469 98.097656 294.0625 119.714844 C 294.101562 120.15625 294.117188 120.585938 294.117188 121.027344 C 294.117188 129.617188 286.996094 137.578125 274.855469 144.109375 C 255.589844 154.484375 223.691406 161.261719 187.597656 161.261719 C 151.507812 161.261719 119.609375 154.484375 100.34375 144.109375 C 88.203125 137.578125 81.082031 129.617188 81.082031 121.027344 Z M 273.3125 157.34375 C 267.144531 157.34375 262.140625 162.332031 262.140625 168.484375 C 262.140625 174.636719 267.144531 179.625 273.3125 179.625 C 279.484375 179.625 284.484375 174.636719 284.484375 168.484375 C 284.484375 162.332031 279.484375 157.34375 273.3125 157.34375 Z M 273.3125 200.546875 C 267.144531 200.546875 262.140625 205.535156 262.140625 211.691406 C 262.140625 217.84375 267.144531 222.832031 273.3125 222.832031 C 279.484375 222.832031 284.484375 217.84375 284.484375 211.691406 C 284.484375 205.535156 279.484375 200.546875 273.3125 200.546875 Z M 273.3125 243.753906 C 267.144531 243.753906 262.140625 248.742188 262.140625 254.894531 C 262.140625 261.050781 267.144531 266.039062 273.3125 266.039062 C 279.484375 266.039062 284.484375 261.050781 284.484375 254.894531 C 284.484375 248.742188 279.484375 243.753906 273.3125 243.753906 Z M 273.3125 243.753906 "/></g></g></svg>